PathFileType	4	(X/Y/Z)	36_1_tpose_p1_0-165_filt_butterworth.trc
DataRate	CameraRate	NumFrames	NumMarkers	Units	OrigDataRate	OrigDataStartFrame	OrigNumFrames
40.0	40.0	5	27	m	40.0	61	165
Frame#	Time	RHip			RKnee			RAnkle			RBigToe			RSmallToe			RHeel			LHip			LKnee			LAnkle			LBigToe			LSmallToe			LHeel			Neck			Head			Nose			RShoulder			RElbow			RWrist			RThumb			RIndex			RPinky			LShoulder			LElbow			LWrist			LThumb			LIndex			LPinky			
		X1	Y1	Z1	X2	Y2	Z2	X3	Y3	Z3	X4	Y4	Z4	X5	Y5	Z5	X6	Y6	Z6	X7	Y7	Z7	X8	Y8	Z8	X9	Y9	Z9	X10	Y10	Z10	X11	Y11	Z11	X12	Y12	Z12	X13	Y13	Z13	X14	Y14	Z14	X15	Y15	Z15	X16	Y16	Z16	X17	Y17	Z17	X18	Y18	Z18	X19	Y19	Z19	X20	Y20	Z20	X21	Y21	Z21	X22	Y22	Z22	X23	Y23	Z23	X24	Y24	Z24	X25	Y25	Z25	X26	Y26	Z26	X27	Y27	Z27	
61	1.525	0.3277422744807522	0.5316777891293976	-0.16123588248473592	0.35625807634511736	0.658901523042937	0.2733990420685918	0.3847421765409503	0.7536716310989637	0.7266889501790663	0.33209631356713115	0.5228244866723912	0.7439431873842128	0.40313812248378533	0.5578657270891492	0.7445097774601297	0.3517401305573486	0.8449002609324289	0.7875022521289701	0.130213611673266	0.5218795073925157	-0.14646162347041675	0.15133882310918384	0.6537374387406496	0.29702906601595247	0.18865828856302044	0.7307438930851309	0.7183074009224113	0.17570580891116563	0.5196198630913988	0.7426857746679301	0.13007527054781892	0.5961367650599192	0.7699573181942392	0.21040877975968372	0.8007398792244795	0.7929219999183891	0.17565732317740418	0.4519521112673617	-0.7690568724574771	0.15090791439614037	0.3200486024223582	-1.0248911339099882	0.16484084549469818	0.28786324175692624	-0.8588677716411783	0.34149152709316266	0.44538020977085	-0.7608233270571184	0.6185858335956216	0.49235799794935897	-0.7108337721446352	0.9039227159508181	0.5119262064509337	-0.6838408741940089	1.0415003595303942	0.4610725423486146	-0.6714112714973474	1.0674896342510443	0.43894314002231	-0.6929433713182823	1.0361960507288877	0.503147637208313	-0.6725072669111252	-0.0031909494458255494	0.4624399044659088	-0.7356158028358946	-0.26047368040057617	0.523592643498606	-0.632097171821254	-0.5296759777621107	0.5132710661189153	-0.5667028661055935	-0.6237407055855402	0.4723191396248998	-0.5513556114650473	-0.6602743239067377	0.5221354005691982	-0.565134856685827	-0.6461944834940764	0.5223137569693357	-0.5617234104965704
62	1.55	0.3275874642658255	0.5316465186413138	-0.16069941198983986	0.3562039183041526	0.6588216973006814	0.27331556876847024	0.38477144046934925	0.75372520909426	0.7264709711221635	0.3324629587602871	0.5226722381189326	0.7458457253791717	0.4040948218764105	0.5513421661363775	0.7455793971050837	0.3539353819070111	0.8448900294802975	0.7872315778655152	0.13006499951972483	0.5218741096248168	-0.14702621115588874	0.1513384520950968	0.6537658815191061	0.29701579154610164	0.1886024866789069	0.7307196154920774	0.718285648482133	0.17572070648295685	0.5195425657641246	0.7426626959547078	0.13002560193624163	0.5962245141703976	0.7699924364831185	0.21010426562752524	0.8016738313044748	0.7960096228747551	0.1756446227231347	0.4519110316471858	-0.7690581195735368	0.15092442203009399	0.3200974926937761	-1.0247745700574495	0.16462907655973913	0.28757397598692774	-0.8606281187674814	0.3414408473622961	0.4453270037149262	-0.760832839475801	0.6185317385264338	0.4927062869062588	-0.710643364111994	0.9038863821637373	0.5117910157762406	-0.683834922548639	1.0396815862993292	0.4633154165579957	-0.6722681869824798	1.0674254358967052	0.43907866682203833	-0.6929256768190796	1.0358616234346245	0.5107596132949315	-0.6746457628288764	-0.001970599679802818	0.46834638900788406	-0.7358871504138258	-0.2603995467187923	0.5237105467683023	-0.6320637529670559	-0.5296618905942881	0.5132425343526277	-0.5667025477353729	-0.6237642260821304	0.4725429375343061	-0.5513719564732475	-0.6605089461629444	0.5226914443890329	-0.5650147738348621	-0.6427232756791799	0.5164350900981947	-0.5615834174161367
63	1.575	0.32753194122180473	0.5315254477973538	-0.16076393467362332	0.35620929935079104	0.6587998958807845	0.27330316365225166	0.38478144915437296	0.7537342108972234	0.7263957970335657	0.3322579131856205	0.5225079186392634	0.7472605416869003	0.4050182980333507	0.5452202929764949	0.744040706169519	0.35529823601608274	0.844934368678259	0.7873796256086802	0.13009077697829055	0.5218277729561043	-0.14692699267992668	0.15125692677155236	0.6537131652261852	0.2971944504823779	0.18851192718170098	0.7305254707014275	0.7181548655485709	0.175698553152289	0.5194863151967937	0.742592525185812	0.1289144674628026	0.5916064500418718	0.767970226998554	0.20993490993822705	0.8021925032584108	0.7977096893195543	0.1756265525835243	0.451867162590683	-0.7690639629906773	0.15093340049459703	0.3199969499558905	-1.0247351680125343	0.16430365334775782	0.2872013796253068	-0.8629340367339042	0.3414119112373858	0.44528895759319376	-0.7608545979824551	0.6186881575110237	0.49255738948118244	-0.7106622180780803	0.9037095219439146	0.5109850491075638	-0.6837951532828883	1.0402566275215295	0.46074595939586704	-0.6734740577163197	1.068481477433163	0.43892701607019324	-0.6928613060479584	1.0357257672878744	0.5153142793022037	-0.6757717263704466	-0.0012919145140829905	0.4718579504912356	-0.7360565884962633	-0.2592810049164988	0.524666511662967	-0.6321977620842003	-0.5295963144104412	0.5132397445973396	-0.566704407102776	-0.624128352785293	0.47326207220067984	-0.5513889251520219	-0.6606124167771188	0.522732800418024	-0.564961401213199	-0.6381973940321998	0.5136412844076309	-0.5607257841238475
64	1.6	0.32755780831247283	0.5315615381375735	-0.16059494270561825	0.3562516299036542	0.6588232726557368	0.2733399697874429	0.3847690864416369	0.7537109302543642	0.7264358145498798	0.33236849186447226	0.5225793172912719	0.74734521091984	0.40518306058848313	0.5440613982303016	0.7416439735883077	0.3552869348541048	0.8449775925502732	0.787401959529342	0.1301185081858173	0.5218291301118835	-0.14664214172416673	0.1511882658535817	0.6536067978004582	0.29718887965020824	0.18845820698415258	0.7303034443383722	0.7180188382269909	0.17568422585469864	0.5194484705909684	0.7425803699500142	0.12738276440737634	0.5847297380478057	0.7649598210683832	0.20993949810553644	0.8021753750617437	0.7976146160575941	0.17562136646630616	0.45185781925101054	-0.769067641502824	0.15094493131727954	0.3198625046027687	-1.0247500410513286	0.1641923117612168	0.28711972356518234	-0.8635519324024028	0.34140451275783856	0.44531457590398976	-0.7608738229224664	0.6189516733039981	0.49244013037211853	-0.7098172861695082	0.9037851128545399	0.5116908306300937	-0.6837643154422428	1.0462269045198238	0.45602841823612816	-0.6751314425956396	1.0703114262215754	0.4386390262449562	-0.6930822642088612	1.0357718096135724	0.5153308048234407	-0.6755212918133983	-0.0015185898537431331	0.4724322136257506	-0.7360676824393394	-0.2575473805650807	0.526291330349314	-0.6324121263123351	-0.5295087720731139	0.5132348331810858	-0.5667095561443238	-0.6241195912569291	0.47327597645831215	-0.551459027243303	-0.6606044654015785	0.5227221906947552	-0.5649637400634524	-0.6350313986021338	0.5139217810422259	-0.5602734705610244
65	1.625	0.3275513079909489	0.5315980973076346	-0.16052087654258046	0.35628035930794927	0.6588563621272269	0.2733663520337858	0.384751556292528	0.7537149730870202	0.7264727609448365	0.3323820355601442	0.5226324739684056	0.7461805666449149	0.4048738824909172	0.5465013717761646	0.7413169462755054	0.35503378145440356	0.8449700802228066	0.7873659766959822	0.1301109157215689	0.5217974196780417	-0.14666367345884343	0.1511571124834314	0.6533998774099111	0.29716070259205296	0.18847227958269983	0.7302363712624788	0.7179897752504383	0.17572109827201324	0.5194109740347004	0.7427583458664201	0.12655702039390626	0.5807090678288251	0.7631876119163712	0.20993844008598322	0.8020860549942969	0.7973409109809193	0.17563469611131294	0.45189211611292346	-0.7690625319402931	0.1509619385206188	0.3197796902102168	-1.024720481190613	0.16440922719679246	0.28737162645739167	-0.8617141564690004	0.34140245716058293	0.44536751168410854	-0.7608836007530041	0.6179304565306973	0.49247703624541994	-0.7081655971693201	0.9039957214265326	0.511736506510441	-0.683759948947798	1.0538378639607469	0.4535428743424326	-0.6768075327537841	1.0715210293258	0.438528041952702	-0.6933262634189252	1.0353251014746125	0.5141899650224273	-0.6753835430565169	-0.0016145049198885565	0.4717599067376221	-0.736069711166557	-0.2564453728887292	0.5271979982478063	-0.6324901321916598	-0.5294414210603064	0.513202898722345	-0.5667122772467864	-0.6222214008024275	0.4702642047855182	-0.5513570864591326	-0.6605493283335994	0.5228371798266098	-0.5649755876824304	-0.6336365502102075	0.5118229344954155	-0.5604140350285044
